<?xml version="1.0" encoding="iso-8859-1"?>
<!-- Generator: Adobe Illustrator 19.0.0, SVG Export Plug-In . SVG Version: 6.00 Build 0)  -->
<svg version="1.1" id="Layer_1" xmlns="http://www.w3.org/2000/svg" xmlns:xlink="http://www.w3.org/1999/xlink" x="0px" y="0px"
	 viewBox="0 0 512 512" style="enable-background:new 0 0 512 512;" xml:space="preserve">
<g id="XMLID_5203_">
	<path id="XMLID_5906_" style="fill:#FFA6B7;" d="M442.493,263.133v217.97H70.209v-217.97c0-15.647,12.685-28.343,28.332-28.343
		h315.62C429.808,234.791,442.493,247.486,442.493,263.133z"/>
	<rect id="XMLID_6990_" x="70.209" y="429.21" style="fill:#FFF4CA;" width="372.284" height="23.856"/>
	<rect id="XMLID_5904_" x="70.209" y="453.535" style="fill:#FC819C;" width="372.284" height="27.568"/>
	<path id="XMLID_6969_" style="fill:#FC819C;" d="M442.493,263.133v61.855h-92.982v9.189c0,9.985-3.893,19.363-10.958,26.417
		c-7.012,7.023-16.39,10.916-26.375,10.916c-15.396,0-28.636-9.367-34.34-22.701c-0.628,0.754-1.287,1.476-1.989,2.177
		c-6.363,6.353-14.82,9.859-23.811,9.859c-10.728,0-20.294-5.045-26.469-12.884v16.212c0,14.402-5.61,27.934-15.783,38.097
		c-10.184,10.163-23.706,15.762-38.076,15.762c-29.693,0-53.849-24.156-53.849-53.859v-25.559
		c-5.463,9.514-15.731,15.93-27.474,15.93H70.209v-91.412c0-15.647,12.685-28.343,28.332-28.343h315.62
		C429.808,234.791,442.493,247.486,442.493,263.133z"/>
	<g id="XMLID_7031_">
		<rect id="XMLID_4810_" x="70.209" y="378.074" style="fill:#FFF4CA;" width="372.284" height="23.853"/>
		<path id="XMLID_4751_" style="fill:#FFEB96;" d="M223.769,378.074c-2.365,8.928-7.012,17.112-13.648,23.853h-76.77
			c-6.447-6.541-11.23-14.726-13.669-23.853H223.769z"/>
	</g>
	<g id="XMLID_6872_">
		<g id="XMLID_6873_">
			<path id="XMLID_1068_" style="fill:#D8D7DA;" d="M265.657,82.976v38.839c0,4.202-3.41,7.611-7.612,7.611
				c-4.202,0-7.611-3.41-7.611-7.611V82.976c0-4.202,3.41-7.611,7.611-7.611C262.247,75.364,265.657,78.774,265.657,82.976z"/>
		</g>
		<rect id="XMLID_6953_" x="224.86" y="121.812" style="fill:#63CEC1;" width="60.566" height="156.187"/>
		<rect id="XMLID_7036_" x="224.86" y="215.323" style="fill:#5BBAAC;" width="60.566" height="62.676"/>
		<path id="XMLID_6885_" style="fill:#5BBAAC;" d="M285.427,121.812v41.061h-3.172c-0.179,0-0.317,0.146-0.317,0.317v15.3
			c0,12.762-10.387,23.15-23.158,23.15c-12.771,0-23.158-10.387-23.158-23.15v-15.3c0-0.171-0.138-0.317-0.317-0.317h-0.203
			l-10.241-0.285v-40.776H285.427z"/>
		<path id="XMLID_6883_" style="fill:#CEFFFB;" d="M235.308,148.235c8.261,0,14.957,6.697,14.957,14.957v15.294
			c0,4.702,3.812,8.514,8.514,8.514l0,0c4.702,0,8.514-3.812,8.514-8.514v-15.294c0-8.261,6.697-14.957,14.957-14.957h3.177h2.04
			c7.219,0,13.071-5.852,13.071-13.071v-0.279c0-7.219-5.852-13.071-13.071-13.071h-61.901c-7.219,0-13.071,5.852-13.071,13.071v0
			c0,7.076,5.631,12.867,12.704,13.066L235.308,148.235z"/>
		<path id="XMLID_6875_" style="fill:#FFC988;" d="M267.755,33.988c-2.924-5.046-10.023-5.499-13.57-0.869
			c-15.507,20.247-45.772,67.24,7.403,67.24C301.673,100.359,279.743,54.678,267.755,33.988z"/>
		<path id="XMLID_1064_" style="fill:#FFB64D;" d="M265.657,82.976v17.202c-1.279,0.122-2.639,0.183-4.07,0.183
			c-4.232,0-7.926-0.294-11.153-0.853V82.976c0-4.202,3.41-7.611,7.611-7.611C262.247,75.364,265.657,78.774,265.657,82.976z"/>
	</g>
	<path id="XMLID_6810_" style="fill:#D36B16;" d="M442.493,263.133v43.016h-98.414c-7.4,0-13.407,5.997-13.407,13.407v14.621
		c0,5.107-2.072,9.734-5.421,13.072c-3.339,3.349-7.965,5.422-13.072,5.422c-10.205,0-18.483-8.279-18.483-18.494v-14.621
		c0-3.705-1.497-7.054-3.925-9.482c-2.428-2.428-5.788-3.925-9.493-3.925c-7.4,0-13.407,5.997-13.407,13.407v7.619
		c0,4.092-1.654,7.797-4.343,10.487c-2.679,2.679-6.395,4.344-10.487,4.344c-8.185,0-14.831-6.646-14.831-14.831v-7.619
		c0-7.41-6.008-13.407-13.407-13.407h-3.663c-7.41,0-13.407,5.997-13.407,13.407v44.618c0,9.671-3.914,18.431-10.257,24.763
		c-6.343,6.332-15.092,10.257-24.763,10.257c-19.342,0-35.01-15.678-35.01-35.02v-41.279c0-4.626-1.873-8.813-4.909-11.837
		c-3.035-3.035-7.222-4.909-11.837-4.909c-9.252,0-16.746,7.494-16.746,16.746c0,7.075-5.746,12.811-12.821,12.811H70.209v-72.573
		c0-15.647,12.685-28.343,28.332-28.343h315.62C429.808,234.791,442.493,247.486,442.493,263.133z"/>
	<path id="XMLID_5155_" style="fill:#C7C5CC;" d="M446.981,512H65.019c-14.977,0-29.218-6.491-39.042-17.796l-5.351-6.158
		c-4.137-4.76-0.756-12.177,5.551-12.177h459.647c6.306,0,9.687,7.417,5.551,12.177l-5.351,6.158
		C476.199,505.509,461.958,512,446.981,512z"/>
	<g id="XMLID_5877_">
		<path id="XMLID_794_" style="fill:#B75B16;" d="M349.102,274.859h-1.429c-4.204,0-7.611-3.407-7.611-7.611
			s3.407-7.611,7.611-7.611h1.429c4.204,0,7.612,3.407,7.612,7.611S353.306,274.859,349.102,274.859z"/>
	</g>
	<g id="XMLID_5898_">
		<path id="XMLID_793_" style="fill:#B75B16;" d="M322.107,289.336h-1.429c-4.204,0-7.611-3.407-7.611-7.611
			c0-4.204,3.407-7.612,7.611-7.612h1.429c4.204,0,7.611,3.407,7.611,7.612C329.718,285.929,326.311,289.336,322.107,289.336z"/>
	</g>
	<g id="XMLID_5899_">
		<path id="XMLID_792_" style="fill:#B75B16;" d="M159.88,271.543h-1.429c-4.204,0-7.611-3.407-7.611-7.611s3.408-7.611,7.611-7.611
			h1.429c4.204,0,7.611,3.407,7.611,7.611S164.083,271.543,159.88,271.543z"/>
	</g>
	<g id="XMLID_6785_">
		<path id="XMLID_791_" style="fill:#FFC988;" d="M296.202,28.207c-2.384,0-4.73-1.116-6.215-3.208
			c-2.432-3.428-1.624-8.179,1.804-10.612l18.297-12.982c3.431-2.432,8.18-1.624,10.612,1.804c2.432,3.428,1.624,8.179-1.804,10.612
			L300.6,26.802C299.263,27.751,297.724,28.207,296.202,28.207z"/>
	</g>
	<g id="XMLID_6786_">
		<path id="XMLID_790_" style="fill:#FFC988;" d="M325.872,65.726c-0.438,0-0.881-0.038-1.328-0.116l-22.096-3.887
			c-4.14-0.728-6.906-4.675-6.177-8.816c0.728-4.14,4.669-6.906,8.816-6.177l22.096,3.887c4.14,0.728,6.906,4.675,6.177,8.816
			C332.71,63.126,329.497,65.726,325.872,65.726z"/>
	</g>
	<g id="XMLID_6792_">
		<path id="XMLID_789_" style="fill:#FFC988;" d="M216.835,28.207c-1.523,0-3.061-0.456-4.398-1.404L194.139,13.82
			c-3.429-2.433-4.236-7.184-1.803-10.612c2.433-3.427,7.184-4.236,10.612-1.804l18.298,12.982
			c3.429,2.433,4.236,7.184,1.803,10.612C221.565,27.09,219.218,28.207,216.835,28.207z"/>
	</g>
	<g id="XMLID_6791_">
		<path id="XMLID_788_" style="fill:#FFC988;" d="M187.164,65.726c-3.625,0-6.837-2.6-7.488-6.293
			c-0.728-4.141,2.038-8.087,6.178-8.816l22.096-3.887c4.142-0.726,8.087,2.038,8.815,6.177c0.728,4.141-2.038,8.087-6.178,8.816
			l-22.096,3.887C188.046,65.688,187.602,65.726,187.164,65.726z"/>
	</g>
</g>
<g>
</g>
<g>
</g>
<g>
</g>
<g>
</g>
<g>
</g>
<g>
</g>
<g>
</g>
<g>
</g>
<g>
</g>
<g>
</g>
<g>
</g>
<g>
</g>
<g>
</g>
<g>
</g>
<g>
</g>
</svg>
